<svg width="24" height="24" xmlns="http://www.w3.org/2000/svg">

 <g>
  <title>background</title>
  <rect fill="none" id="canvas_background" height="26" width="26" y="-1" x="-1"/>
 </g>
 <g>
  <title>Layer 1</title>
  <path fill="#082b34" id="svg_1" d="m21.906004,10.349l-15.849607,0l3.813811,-3.813811c0.325248,-0.325249 0.47879,-0.713233 0.47879,-1.139191c0,-0.812293 -0.671132,-1.651 -1.651001,-1.651c-0.43834,0 -0.820547,0.159321 -1.13919,0.47879l-6.569332,6.569331c-0.270764,0.270764 -0.546481,0.605092 -0.546481,1.206882s0.230315,0.89154 0.533273,1.194501l6.58254,6.581714c0.318643,0.319468 0.70085,0.478788 1.13919,0.478788c0.980695,0 1.651001,-0.838709 1.651001,-1.650999c0,-0.425961 -0.153543,-0.813944 -0.47879,-1.139191l-3.813811,-3.813813l15.849607,0c0.911354,0 1.651001,-0.739647 1.651001,-1.651s-0.739647,-1.651 -1.651001,-1.651z"/>
 </g>
</svg>