<?xml version="1.0" encoding="utf-8"?>
<!-- Generator: Adobe Illustrator 26.2.1, SVG Export Plug-In . SVG Version: 6.00 Build 0)  -->
<svg version="1.1" id="Layer_1" xmlns="http://www.w3.org/2000/svg" xmlns:xlink="http://www.w3.org/1999/xlink" x="0px" y="0px"
	 viewBox="0 0 600 350" style="enable-background:new 0 0 600 350;" xml:space="preserve">
<style type="text/css">
	.st0{fill:#FFFFFF;}
</style>
<g id="Ñëîé_3">
	<path class="st0" d="M15.7,236.4c0,0,0.5,4,3.2,10.5c0.8,2.1,1.7,3.9,3.6,4.8c1.5,0.7,3.1,0.5,4,0.3c11.5,0,23-0.1,34.5-0.1
		c-1.6-8-1.6-16.3,0-24.3c6.7-33.4,39.2-55.1,72.7-48.4s55.1,39.2,48.4,72.7c44.1,0,88.2,0,132.2,0.1c36.4,0.1,72.7,0.1,109.1,0.2
		c-1.7-8.3-1.7-16.9,0.1-25.2c7.1-33.4,39.8-54.7,73.2-47.6s54.7,39.9,47.6,73.2l15.9,0.1c1.9,0.2,3.8,0.2,5.6,0
		c2-0.2,7.8-1,12.8-5.8c0.6-0.6,5.3-5.1,6.5-12.2c0.1-0.8,0.2-2,0.3-4.6c0.1-3.1,0.1-5.3,0-12.9c-0.1-4.5-0.1-6.1-0.1-9.1
		c-0.3-24.9-0.6-41.2-9.1-55.9c-1.4-2.5-2.7-5-5.5-7.5c-7.6-6.8-17.6-9.7-23.5-11.4c-13.9-3.9-15.8-4-25.3-6.6
		c-13.2-3.7-20.4-5.7-29.1-10.2c-3.1-1.6-3.8-2.2-21.5-14.4c-14.1-9.7-21.2-14.7-23.5-16c-13.2-7.7-24.7-11.3-32.5-13.8
		c-3.8-1.2-16.2-4.9-34.8-7.3c-26-3.3-46.2-1.8-61.6-0.4c-28.1,2.4-49.7,7.6-60.6,10.5c-12,3.2-26.7,7.2-45.1,15.7
		c-13.6,6.3-24.3,11.1-36.3,20.2c-8.6,6.5-18.3,11.5-26.1,19c-2.7,2.7-5.9,4.8-9.5,6.1c-2.7,1-4.9,1.3-5.8,1.3
		c-8.9,0.4-43.7,6.6-62.2,10.9c-8.4,2-16.6,4.7-24.6,7.9c-4.6,1.8-9,4.1-13.1,6.8c-3.4,2.2-5.9,3.8-8.5,6.6
		c-2.2,2.4-5.3,6.3-8.2,15.1c-0.8,2.4-4,12.4-4.3,30.7C14.5,222.2,14.9,229.3,15.7,236.4z M334.5,133.5c-0.1,0-0.2,0-0.3,0
		c-1.3-0.2-2.3-1.4-2.1-2.7l5.3-44.7c0.2-1.2,1.1-2.1,2.3-2.1c15.6-0.3,31.3,1.4,46.6,4.8c11.5,2.6,26.5,6.1,43.8,15.8
		c11.3,6.4,21.7,14.3,30.9,23.6c0.4,0.5,0.7,1,0.7,1.7c0,1.3-1,2.4-2.4,2.4L334.5,133.5L334.5,133.5z M185,139.1
		c-3,0.1-4.5-3.6-2.3-5.6c3.4-3.1,7.5-6.6,12.2-10.1c3.7-2.8,20.1-14.7,48.4-25.1c15.1-5.5,38.4-12.3,68.4-14.2c0.2,0,0.4,0,0.6,0
		c1.8,0.2,3,1.9,2.8,3.6c-2,14.7-4,29.3-6,44c-0.2,1.6-1.5,2.7-3.1,2.8L185,139.1L185,139.1z"/>
	<path class="st0" d="M90.4,203.7c-18.8,16.3-21.9,44.4-6.9,64.4c0.2,0.3,0.5,0.6,0.7,0.9c1.4,1.8,2.9,3.5,4.6,5.1
		c0.8,0.8,1.7,1.5,2.6,2.3c0.5,0.4,0.9,0.7,1.4,1.1c2.4,1.8,5,3.4,7.7,4.8c0.4,0.2,0.7,0.3,1.1,0.5c1.3,0.6,2.7,1.2,4.1,1.7
		c0.5,0.2,1,0.3,1.5,0.5c4.7,1.5,9.6,2.2,14.5,2.2c2,0,4.1-0.1,6.1-0.4c1.6-0.2,3.1-0.5,4.7-0.8c1.2-0.3,2.3-0.6,3.4-0.9
		c0.7-0.2,1.5-0.5,2.2-0.7c1.1-0.4,2.2-0.8,3.2-1.3c0.7-0.3,1.4-0.7,2.1-1c2.4-1.2,4.6-2.6,6.8-4.2c0.6-0.5,1.2-0.9,1.8-1.4
		c0.9-0.7,1.7-1.5,2.6-2.3c0.8-0.8,1.6-1.6,2.4-2.5s1.5-1.7,2.2-2.6c0.2-0.3,0.5-0.6,0.7-0.9c0.9-1.2,1.8-2.5,2.6-3.8
		c0.8-1.3,1.5-2.6,2.2-4c0.8-1.7,1.6-3.5,2.2-5.3c0.3-1,0.6-2,0.9-3c2.3-8.8,2.1-18.2-0.7-26.9c-0.1-0.4-0.2-0.8-0.4-1.1
		c-0.5-1.4-1-2.8-1.7-4.1c-0.2-0.5-0.4-0.9-0.6-1.4c-0.5-1-1-1.9-1.5-2.8c-0.2-0.4-0.5-0.8-0.7-1.2c-0.5-0.9-1.1-1.7-1.7-2.5
		c-0.6-0.8-1.2-1.6-1.8-2.3c-0.3-0.4-0.6-0.8-1-1.1c-1.5-1.7-3-3.3-4.7-4.7c-0.3-0.2-0.6-0.5-0.9-0.7c-0.9-0.7-1.8-1.4-2.7-2.1
		c-0.6-0.4-1.3-0.9-1.9-1.3c-0.6-0.4-1.3-0.8-2-1.2c-0.7-0.4-1.3-0.7-2-1.1c-0.7-0.4-1.4-0.7-2.1-1c-1-0.5-2.1-0.9-3.2-1.3
		c-0.7-0.3-1.5-0.5-2.2-0.7c-1.1-0.3-2.3-0.6-3.4-0.9c-8.4-1.9-17.1-1.6-25.2,1c-0.5,0.2-1,0.3-1.5,0.5c-1.4,0.5-2.8,1.1-4.1,1.7
		c-0.4,0.2-0.7,0.3-1.1,0.5c-1.1,0.5-2.1,1.1-3.1,1.7c-0.2,0.2-0.5,0.3-0.8,0.5c-1.1,0.7-2.2,1.4-3.2,2.2c-0.7,0.5-1.4,1-2,1.6
		C90.9,203.2,90.6,203.4,90.4,203.7L90.4,203.7z"/>
	<path class="st0" d="M450.2,206c-18.5,18.5-18.5,48.6,0,67.2c0.3,0.3,0.6,0.5,0.8,0.8c0.3,0.3,0.6,0.5,0.8,0.8
		c0.7,0.6,1.4,1.2,2.1,1.8c0.5,0.4,0.9,0.7,1.4,1.1c2.2,1.6,4.4,3,6.8,4.2c0.7,0.4,1.4,0.7,2.1,1c1,0.5,2.1,0.9,3.2,1.3
		c0.7,0.3,1.5,0.5,2.2,0.7c0.4,0.1,0.7,0.2,1.1,0.3c1.1,0.3,2.3,0.6,3.4,0.8c0.8,0.2,1.6,0.3,2.3,0.4c0.8,0.1,1.6,0.2,2.4,0.3
		c0.4,0.1,0.8,0.1,1.2,0.1c1.2,0.1,2.4,0.1,3.7,0.1c2,0,4.1-0.1,6.1-0.4c1.6-0.2,3.1-0.5,4.7-0.8c1.1-0.3,2.3-0.6,3.4-0.9
		c0.7-0.2,1.5-0.5,2.2-0.7c1.1-0.4,2.2-0.8,3.2-1.3c0.7-0.3,1.4-0.7,2.1-1c2.4-1.2,4.6-2.6,6.8-4.2c0.6-0.5,1.2-0.9,1.8-1.4
		c0.9-0.7,1.7-1.5,2.6-2.2c0.8-0.8,1.6-1.6,2.4-2.5s1.5-1.7,2.2-2.6c0.2-0.3,0.5-0.6,0.7-0.9c0.9-1.2,1.8-2.5,2.6-3.8
		c0.8-1.3,1.5-2.6,2.2-4c0.8-1.7,1.6-3.5,2.2-5.3c0.3-0.8,0.5-1.6,0.7-2.4c2.5-9,2.3-18.6-0.6-27.5c-0.1-0.4-0.2-0.8-0.4-1.1
		c-0.5-1.4-1-2.8-1.7-4.1c-0.2-0.5-0.4-0.9-0.6-1.4c-0.5-1-1-1.9-1.5-2.8c-0.2-0.4-0.5-0.8-0.7-1.2c-0.5-0.9-1.1-1.7-1.7-2.5
		c-0.6-0.8-1.2-1.6-1.8-2.3c-0.3-0.4-0.6-0.8-1-1.1c-1.5-1.7-3-3.3-4.7-4.7c-0.3-0.2-0.6-0.5-0.9-0.7c-0.9-0.7-1.8-1.4-2.7-2.1
		c-0.6-0.4-1.3-0.9-1.9-1.3c-0.6-0.4-1.3-0.8-2-1.2c-0.7-0.4-1.3-0.7-2-1.1c-0.7-0.4-1.4-0.7-2.1-1c-1-0.5-2.1-0.9-3.2-1.3
		c-0.7-0.3-1.5-0.5-2.2-0.7c-1.1-0.3-2.2-0.6-3.4-0.9c-3.5-0.8-7.1-1.2-10.7-1.2c-1.2,0-2.5,0-3.7,0.1c-0.4,0-0.8,0.1-1.2,0.1
		c-0.8,0.1-1.6,0.2-2.4,0.3s-1.6,0.3-2.3,0.4c-1.2,0.2-2.3,0.5-3.4,0.8c-0.4,0.1-0.7,0.2-1.1,0.3c-0.7,0.2-1.5,0.5-2.2,0.7
		c-1.1,0.4-2.2,0.8-3.2,1.3c-0.7,0.3-1.4,0.7-2.1,1c-0.7,0.4-1.4,0.7-2,1.1c-0.7,0.4-1.3,0.8-2,1.2c-0.6,0.4-1.3,0.8-1.9,1.3
		c-0.8,0.6-1.6,1.2-2.3,1.8c-0.6,0.5-1.1,0.9-1.7,1.4C451.6,204.7,450.9,205.3,450.2,206L450.2,206z"/>
</g>
</svg>
