<?xml version="1.0" encoding="utf-8"?>
<!-- Generator: Adobe Illustrator 26.2.1, SVG Export Plug-In . SVG Version: 6.00 Build 0)  -->
<svg version="1.1" id="Layer_1" xmlns="http://www.w3.org/2000/svg" xmlns:xlink="http://www.w3.org/1999/xlink" x="0px" y="0px"
	 viewBox="0 0 600 350" style="enable-background:new 0 0 600 350;" xml:space="preserve">
<style type="text/css">
	.st0{fill:#FFFFFF;}
</style>
<g id="Ñëîé_3">
	<path class="st0" d="M585.4,215.1c-0.3-18.2-3.5-28.3-4.3-30.7c-2.9-8.8-6-12.8-8.2-15.1c-2.6-2.8-5-4.4-8.5-6.6
		c-4.1-2.7-8.5-4.9-13.1-6.8c-8-3.2-16.2-5.9-24.6-7.9c-18.5-4.3-53.3-10.5-62.2-10.9c-0.8,0-3-0.3-5.8-1.3
		c-3.6-1.3-6.8-3.4-9.5-6.1c-7.7-7.5-17.5-12.5-26.1-19c-12-9.1-22.7-13.9-36.3-20.2c-18.3-8.5-33.1-12.5-45.1-15.7
		c-10.9-2.9-32.5-8.1-60.6-10.5c-15.5-1.3-35.7-2.9-61.6,0.4c-18.6,2.4-31,6.1-34.8,7.3c-7.9,2.5-19.3,6.1-32.5,13.8
		c-2.3,1.3-9.4,6.2-23.5,16c-17.6,12.2-18.3,12.8-21.5,14.4c-8.7,4.5-15.9,6.5-29.1,10.2c-9.5,2.7-11.5,2.7-25.3,6.6
		c-5.9,1.7-15.9,4.6-23.5,11.4c-2.7,2.5-4,5-5.5,7.5c-8.5,14.6-8.8,31-9.1,55.9c0,3,0,4.6-0.1,9.1c-0.1,7.7-0.1,9.9,0,12.9
		c0.1,2.6,0.2,3.8,0.3,4.6c1.2,7.1,5.9,11.7,6.5,12.2c5,4.7,10.8,5.5,12.8,5.8c1.9,0.2,3.8,0.2,5.6,0l15.9-0.1
		c-7.1-33.4,14.2-66.1,47.6-73.2s66.1,14.2,73.2,47.6c1.8,8.3,1.8,16.9,0.1,25.2c36.4-0.1,72.7-0.2,109.1-0.2
		c44.1-0.1,88.1-0.1,132.2-0.1c-6.7-33.4,15-66,48.4-72.7s66,15,72.7,48.4c1.6,8,1.6,16.3,0,24.3c11.5,0,23,0,34.5,0.1
		c0.9,0.2,2.5,0.4,4-0.3c1.9-0.9,2.8-2.7,3.6-4.8c2.6-6.5,3.2-10.5,3.2-10.5C585.2,229.3,585.5,222.2,585.4,215.1z M265.5,133.5
		l-124.8-1.2c-1.3,0-2.4-1.1-2.4-2.4c0-0.6,0.2-1.2,0.7-1.7c9.1-9.3,19.5-17.2,30.9-23.6c17.3-9.7,32.2-13.2,43.8-15.8
		c15.3-3.4,30.9-5.1,46.6-4.8c1.2,0,2.2,0.9,2.3,2.1l5.3,44.7c0.2,1.3-0.8,2.5-2.1,2.7C265.7,133.5,265.6,133.5,265.5,133.5
		L265.5,133.5z M415,139.1l-120.9-4.5c-1.6-0.1-2.9-1.2-3.1-2.8c-2-14.7-4-29.3-6-44c-0.2-1.8,1-3.4,2.8-3.6c0.2,0,0.4,0,0.6,0
		c29.9,1.9,53.2,8.6,68.4,14.2c28.3,10.4,44.7,22.3,48.4,25.1c4.7,3.5,8.8,7,12.2,10.1C419.5,135.5,418,139.2,415,139.1L415,139.1z"
		/>
	<path class="st0" d="M509.7,203.7c-0.3-0.2-0.6-0.5-0.9-0.7c-0.7-0.6-1.4-1.1-2-1.6c-1-0.8-2.1-1.5-3.2-2.2
		c-0.2-0.2-0.5-0.3-0.8-0.5c-1-0.6-2.1-1.2-3.1-1.7c-0.4-0.2-0.7-0.3-1.1-0.5c-1.3-0.6-2.7-1.2-4.1-1.7c-0.5-0.2-1-0.3-1.5-0.5
		c-8.2-2.6-16.9-3-25.2-1c-1.1,0.3-2.3,0.6-3.4,0.9c-0.7,0.2-1.5,0.5-2.2,0.7c-1.1,0.4-2.2,0.8-3.2,1.3c-0.7,0.3-1.4,0.6-2.1,1
		c-0.7,0.4-1.4,0.7-2,1.1c-0.7,0.4-1.3,0.8-2,1.2c-0.6,0.4-1.3,0.8-1.9,1.3c-0.9,0.7-1.8,1.4-2.7,2.1c-0.3,0.2-0.6,0.5-0.9,0.7
		c-1.7,1.5-3.3,3-4.7,4.7c-0.3,0.4-0.6,0.8-1,1.1c-0.6,0.7-1.2,1.5-1.8,2.3c-0.6,0.8-1.2,1.7-1.7,2.5c-0.2,0.4-0.5,0.8-0.7,1.2
		c-0.5,0.9-1,1.8-1.5,2.8c-0.2,0.4-0.4,0.9-0.6,1.4c-0.6,1.3-1.2,2.7-1.7,4.1c-0.1,0.4-0.3,0.7-0.4,1.1c-2.8,8.7-3.1,18-0.7,26.9
		c0.3,1,0.6,2,0.9,3c0.6,1.8,1.4,3.6,2.2,5.3c0.7,1.4,1.4,2.7,2.2,4c0.8,1.3,1.7,2.6,2.6,3.8c0.2,0.3,0.5,0.6,0.7,0.9
		c0.7,0.9,1.4,1.8,2.2,2.6c0.8,0.8,1.6,1.7,2.4,2.5c0.8,0.8,1.7,1.5,2.6,2.3c0.6,0.5,1.2,1,1.8,1.4c2.2,1.6,4.4,3,6.8,4.2
		c0.7,0.3,1.4,0.7,2.1,1c1,0.5,2.1,0.9,3.2,1.3c0.7,0.3,1.5,0.5,2.2,0.7c1.1,0.3,2.2,0.6,3.4,0.9c1.5,0.4,3.1,0.6,4.7,0.8
		c2,0.2,4,0.4,6.1,0.4c4.9,0,9.8-0.8,14.5-2.2c0.5-0.2,1-0.3,1.5-0.5c1.4-0.5,2.8-1,4.1-1.7c0.4-0.2,0.7-0.3,1.1-0.5
		c2.7-1.4,5.3-3,7.7-4.8c0.5-0.4,0.9-0.7,1.4-1.1c0.9-0.7,1.7-1.5,2.6-2.3c1.7-1.6,3.2-3.3,4.6-5.1c0.2-0.3,0.5-0.6,0.7-0.9
		C531.6,248.1,528.5,220,509.7,203.7L509.7,203.7z"/>
	<path class="st0" d="M149.8,206c-0.7-0.7-1.4-1.3-2.1-2c-0.6-0.5-1.1-1-1.7-1.4c-0.8-0.6-1.5-1.2-2.3-1.8c-0.6-0.4-1.3-0.9-1.9-1.3
		c-0.6-0.4-1.3-0.8-2-1.2c-0.7-0.4-1.3-0.7-2-1.1c-0.7-0.3-1.4-0.7-2.1-1c-1-0.5-2.1-0.9-3.2-1.3c-0.7-0.3-1.5-0.5-2.2-0.7
		c-0.4-0.1-0.7-0.2-1.1-0.3c-1.1-0.3-2.3-0.6-3.4-0.8c-0.8-0.2-1.6-0.3-2.3-0.4c-0.8-0.1-1.6-0.2-2.4-0.3c-0.4,0-0.8-0.1-1.2-0.1
		c-1.2-0.1-2.4-0.1-3.7-0.1c-3.6,0-7.2,0.4-10.7,1.2c-1.1,0.3-2.3,0.6-3.4,0.9c-0.7,0.2-1.5,0.5-2.2,0.7c-1.1,0.4-2.2,0.8-3.2,1.3
		c-0.7,0.3-1.4,0.6-2.1,1c-0.7,0.4-1.4,0.7-2,1.1c-0.7,0.4-1.3,0.8-2,1.2c-0.6,0.4-1.3,0.8-1.9,1.3c-0.9,0.7-1.8,1.4-2.7,2.1
		c-0.3,0.2-0.6,0.5-0.9,0.7c-1.7,1.5-3.3,3-4.7,4.7c-0.3,0.4-0.6,0.8-1,1.1c-0.6,0.7-1.2,1.5-1.8,2.3c-0.6,0.8-1.2,1.7-1.7,2.5
		c-0.2,0.4-0.5,0.8-0.7,1.2c-0.5,0.9-1,1.8-1.5,2.8c-0.2,0.4-0.4,0.9-0.6,1.4c-0.6,1.3-1.2,2.7-1.7,4.1c-0.1,0.4-0.2,0.7-0.4,1.1
		c-2.9,8.9-3.1,18.5-0.6,27.5c0.2,0.8,0.5,1.6,0.7,2.4c0.6,1.8,1.4,3.6,2.2,5.3c0.7,1.4,1.4,2.7,2.2,4c0.8,1.3,1.7,2.6,2.6,3.8
		c0.2,0.3,0.5,0.6,0.7,0.9c0.7,0.9,1.4,1.8,2.2,2.6c0.8,0.8,1.6,1.7,2.4,2.5c0.8,0.8,1.7,1.5,2.6,2.2c0.6,0.5,1.2,1,1.8,1.4
		c2.2,1.6,4.4,3,6.8,4.2c0.7,0.3,1.4,0.7,2.1,1c1,0.5,2.1,0.9,3.2,1.3c0.7,0.3,1.5,0.5,2.2,0.7c1.1,0.3,2.2,0.6,3.4,0.9
		c1.5,0.4,3.1,0.6,4.7,0.8c2,0.2,4,0.4,6.1,0.4c1.2,0,2.5,0,3.7-0.1c0.4,0,0.8-0.1,1.2-0.1c0.8-0.1,1.6-0.2,2.4-0.3
		c0.8-0.1,1.6-0.3,2.3-0.4c1.2-0.2,2.3-0.5,3.4-0.8c0.4-0.1,0.7-0.2,1.1-0.3c0.7-0.2,1.5-0.5,2.2-0.7c1.1-0.4,2.2-0.8,3.2-1.3
		c0.7-0.3,1.4-0.6,2.1-1c2.4-1.2,4.6-2.6,6.8-4.2c0.5-0.4,0.9-0.7,1.4-1.1c0.7-0.6,1.4-1.2,2.1-1.8c0.3-0.2,0.6-0.5,0.8-0.8
		c0.3-0.3,0.6-0.5,0.8-0.8C168.4,254.6,168.4,224.5,149.8,206L149.8,206z"/>
</g>
</svg>
