<?xml version="1.0" encoding="utf-8"?>
<!-- Generator: Adobe Illustrator 23.0.1, SVG Export Plug-In . SVG Version: 6.00 Build 0)  -->
<svg version="1.1" id="Layer_1" xmlns="http://www.w3.org/2000/svg" xmlns:xlink="http://www.w3.org/1999/xlink" x="0px" y="0px"
	 viewBox="0 0 600 350" style="enable-background:new 0 0 600 350;" xml:space="preserve">
<style type="text/css">
	.st0{fill:#FFFFFF;}
</style>
<title>cars</title>
<path class="st0" d="M22.3,215.3v45h114.2c3.4,26.6,27.7,45.5,54.4,42.1c22-2.8,39.3-20.1,42.1-42.1h156.7
	c3.4,26.6,27.7,45.5,54.4,42.1c22-2.8,39.3-20.1,42.1-42.1H527c0,0,46-5.3,50.7-10v-61.7c0-12.3-30.2-22.7-50.3-26.9l-35.3-47.1
	c-12.3-16.5-42.2-27.3-75.4-27.3h-124c-24.7,0-47.3,6-63.5,16.3L144.6,160C98.7,162.8,31.7,191.5,22.3,215.3z M407.8,254.1
	c0-16.6,13.5-30.1,30.1-30.1s30.1,13.5,30.1,30.1s-13.5,30.1-30.1,30.1l0,0C421.3,284.2,407.8,270.7,407.8,254.1L407.8,254.1z
	 M362.1,116.2h54.6c11.1,0,21,3.2,25.1,9.1l25.6,34.3H362.1V116.2z M184.7,159.6l56.9-38c5.1-3.4,13.6-5.4,21.2-5.4h68.7v43.4H184.7
	z M154.6,254.1c0-16.6,13.5-30.1,30.1-30.1s30.1,13.5,30.1,30.1s-13.5,30.1-30.1,30.1l0,0C168.1,284.2,154.6,270.7,154.6,254.1z"/>
</svg>
