<?xml version="1.0" encoding="utf-8"?>
<!-- Generator: Adobe Illustrator 23.0.1, SVG Export Plug-In . SVG Version: 6.00 Build 0)  -->
<svg version="1.1" id="Layer_1" xmlns="http://www.w3.org/2000/svg" xmlns:xlink="http://www.w3.org/1999/xlink" x="0px" y="0px"
	 viewBox="0 0 600 350" style="enable-background:new 0 0 600 350;" xml:space="preserve">
<style type="text/css">
	.st0{fill:#FFFFFF;}
</style>
<title>cars</title>
<path class="st0" d="M455.4,160l-84.6-56.5c-16.2-10.3-38.8-16.3-63.5-16.3h-124c-33.2,0-63.1,10.8-75.4,27.3l-35.2,47.1
	c-20.1,4.3-50.3,14.7-50.3,26.9v61.7c4.7,4.8,50.7,10,50.7,10H114c3.4,26.6,27.7,45.5,54.4,42.1c22-2.8,39.3-20.1,42.1-42.1h156.7
	c3.4,26.6,27.7,45.5,54.4,42.1c22-2.8,39.3-20.1,42.1-42.1h114.2v-45C568.3,191.5,501.3,162.8,455.4,160z M162.1,284.2
	c-16.6,0-30.1-13.5-30.1-30.1s13.5-30.1,30.1-30.1s30.1,13.5,30.1,30.1l0,0C192.2,270.7,178.7,284.2,162.1,284.2z M237.9,159.6
	H132.5l25.6-34.3c4.1-5.9,14-9.1,25.1-9.1h54.6L237.9,159.6L237.9,159.6z M268.5,159.6v-43.4h68.7c7.5,0,16.1,2,21.2,5.4l56.9,38
	H268.5z M415.3,284.2c-16.6,0-30.1-13.5-30.1-30.1s13.5-30.1,30.1-30.1s30.1,13.5,30.1,30.1l0,0
	C445.4,270.7,431.9,284.2,415.3,284.2z"/>
</svg>
