<?xml version="1.0" encoding="utf-8"?>
<!-- Generator: Adobe Illustrator 23.0.1, SVG Export Plug-In . SVG Version: 6.00 Build 0)  -->
<svg version="1.1" id="Layer_1" xmlns="http://www.w3.org/2000/svg" xmlns:xlink="http://www.w3.org/1999/xlink" x="0px" y="0px"
	 viewBox="0 0 512 350" style="enable-background:new 0 0 512 350;" xml:space="preserve">
<style type="text/css">
	.st0{fill:#FFFFFF;}
</style>
<title>car-home_icon</title>
<path class="st0" d="M256,30.1c0,0-99.6,86-155.3,132.6c-3.6,3.1-5.6,7.6-5.7,12.4c0,8.9,7.2,16.1,16.1,16.1c0,0,0,0,0,0h32.2v112.7
	c0,8.9,7.2,16.1,16.1,16.1c0,0,0,0,0,0h48.3c8.9,0,16.1-7.2,16.1-16.1l0,0v-64.4h64.4v64.4c0,8.9,7.2,16.1,16.1,16.1l0,0h48.3
	c8.9,0,16.1-7.2,16.1-16.1c0,0,0,0,0,0V191.1H401c8.9,0,16.1-7.2,16.1-16.1c0-4.9-2.3-9.4-6.2-12.4C355.6,116.1,256,30.1,256,30.1z"
	/>
</svg>
