<?xml version="1.0" encoding="utf-8"?>
<!-- Generator: Adobe Illustrator 23.0.1, SVG Export Plug-In . SVG Version: 6.00 Build 0)  -->
<svg version="1.1" id="Layer_1" xmlns="http://www.w3.org/2000/svg" xmlns:xlink="http://www.w3.org/1999/xlink" x="0px" y="0px"
	 viewBox="0 0 512 350" style="enable-background:new 0 0 512 350;" xml:space="preserve">
<style type="text/css">
	.st0{fill:#FFFFFF;}
</style>
<title>car_left-arrow-01</title>
<path class="st0" d="M189.3,302.6L89,197.6c-6-5.8-9-13.7-9-22.4s3-16.5,9-22.4L189.3,47.4c11.2-11.9,29.9-12.6,41.8-1.4
	c0.5,0.5,1,0.9,1.4,1.4c11.9,12.7,11.9,32.5,0,45.2L184.3,143h217c17,0,30.7,14.3,30.7,32s-13.7,32-30.6,32h-217l48.2,50.4
	c11.9,12.7,11.9,32.5,0,45.2c-11.2,12-30,12.6-42,1.3C190.2,303.5,189.7,303.1,189.3,302.6L189.3,302.6z"/>
</svg>
