<?xml version="1.0" encoding="utf-8"?>
<!-- Generator: Adobe Illustrator 26.2.1, SVG Export Plug-In . SVG Version: 6.00 Build 0)  -->
<svg version="1.1" id="Layer_1" xmlns="http://www.w3.org/2000/svg" xmlns:xlink="http://www.w3.org/1999/xlink" x="0px" y="0px"
	 viewBox="0 0 64 64" style="enable-background:new 0 0 64 64;" xml:space="preserve">
<style type="text/css">
	.st0{fill:#BBBBBB;}
</style>
<g>
	<path class="st0" d="M25.7,19.5c0.3,0,0.6-0.1,0.9-0.4l2.5-2.5c0.5-0.5,0.5-1.3,0-1.8c-0.5-0.5-1.3-0.5-1.8,0l-2.5,2.5
		c-0.5,0.5-0.5,1.3,0,1.8C25.1,19.3,25.4,19.5,25.7,19.5"/>
	<path class="st0" d="M32.4,14.8l-7.5,7.5c-0.5,0.5-0.5,1.3,0,1.8c0.2,0.2,0.6,0.4,0.9,0.4s0.6-0.1,0.9-0.4l7.5-7.5
		c0.5-0.5,0.5-1.3,0-1.8C33.6,14.3,32.9,14.3,32.4,14.8"/>
	<path class="st0" d="M61.2,8.8c-1.3-2.7-4-4.3-7-4.3H30c-4.6,0-9.1,2-12.2,5.5L6,23.1c-2.7,3-4.1,6.8-4.1,11L4,50.3
		c0.3,2.3,1.4,4.5,3,6.2c2,2,4.7,3.1,7.5,3.1h42.5c2.8,0,5-2.2,5-5V12.3C62.1,11,61.8,9.8,61.2,8.8 M11.7,28.1l11.8-13.2
		C25.1,13,27.5,12,30,12h24.3c0.1,0,0.2,0.1,0.3,0.3V32h-45C9.8,30.7,10.4,29.5,11.7,28.1 M55.8,49.5H10.7c-0.7,0-1.3-0.6-1.3-1.3
		c0-0.7,0.6-1.3,1.3-1.3h45.1c0.7,0,1.3,0.6,1.3,1.3C57.1,49,56.5,49.5,55.8,49.5 M55.8,42h-7.5c-0.7,0-1.3-0.6-1.3-1.3
		s0.6-1.3,1.3-1.3h7.5c0.7,0,1.3,0.6,1.3,1.3C57.1,41.5,56.5,42,55.8,42"/>
</g>
</svg>
