<?xml version="1.0" encoding="utf-8"?>
<!-- Generator: Adobe Illustrator 26.2.1, SVG Export Plug-In . SVG Version: 6.00 Build 0)  -->
<svg version="1.1" id="Layer_1" xmlns="http://www.w3.org/2000/svg" xmlns:xlink="http://www.w3.org/1999/xlink" x="0px" y="0px"
	 viewBox="0 0 64 64" style="enable-background:new 0 0 64 64;" xml:space="preserve">
<style type="text/css">
	.st0{fill:#BBBBBB;}
</style>
<path class="st0" d="M61.5,32c0-2.2-1.8-4-4-4h-0.8l1.9-1.9l-2.4-2.4L51.8,28h-6c-0.3-1-0.7-2-1.2-2.9l4.2-4.2H55v-3.5h-2.8l0.6-0.6
	c1.6-1.6,1.6-4.1,0-5.7c-1.6-1.6-4.1-1.6-5.7,0l-0.6,0.6V9h-3.5v6.2l-4.2,4.2C38,18.9,37,18.5,36,18.2v-6l4.4-4.4L38,5.4L36,7.3V6.5
	c0-2.2-1.8-4-4-4c-2.2,0-4,1.8-4,4v0.8L26,5.4l-2.4,2.4l4.4,4.4v6c-1,0.3-2,0.7-2.9,1.2l-4.2-4.2V9h-3.5v2.8l-0.6-0.6
	c-1.6-1.6-4.1-1.6-5.7,0s-1.6,4.1,0,5.7l0.6,0.6H9v3.5h6.2l4.2,4.2C18.9,26,18.5,27,18.2,28h-6l-4.4-4.4L5.4,26L7.3,28H6.5
	c-2.2,0-4,1.8-4,4s1.8,4,4,4h0.8L5.4,38l2.4,2.4l4.4-4.4h6c0.3,1,0.7,2,1.2,2.9l-4.2,4.2H9v3.5h2.8l-0.6,0.6c-1.6,1.6-1.6,4.1,0,5.7
	C11.9,53.6,13,54,14,54c1,0,2.1-0.4,2.9-1.2l0.6-0.6V55h3.5v-6.2l4.2-4.2c0.9,0.5,1.9,0.9,2.9,1.2v6l-4.4,4.4l2.4,2.4l1.9-1.9v0.8
	c0,2.2,1.8,4,4,4c2.2,0,4-1.8,4-4v-0.8l1.9,1.9l2.4-2.4L36,51.8v-6c1-0.3,2-0.7,2.9-1.2l4.2,4.2V55h3.5v-2.8l0.6,0.6
	C47.9,53.6,49,54,50,54c1,0,2.1-0.4,2.9-1.2c1.6-1.6,1.6-4.1,0-5.7l-0.6-0.6H55v-3.5h-6.2l-4.2-4.2c0.5-0.9,0.9-1.9,1.2-2.9h6
	l4.4,4.4l2.4-2.4L56.7,36h0.8C59.7,36,61.5,34.2,61.5,32 M32,36c-2.2,0-4-1.8-4-4s1.8-4,4-4c2.2,0,4,1.8,4,4S34.2,36,32,36"/>
</svg>
