<svg id="Layer_1" data-name="Layer 1" xmlns="http://www.w3.org/2000/svg" viewBox="0 0 120 120"><defs><style>.cls-1{fill:#3a5162;}</style></defs><path class="cls-1" d="M119.5,60A59.5,59.5,0,1,1,60.22.33,59.49,59.49,0,0,1,119.5,60Zm-9.76.08a49.71,49.71,0,0,0-99.42-.53c-.08,27.73,22,50.24,49.45,50.28A49.74,49.74,0,0,0,109.74,60.11Z"/><path class="cls-1" d="M60.21,73c-2.26.18-3.66-1.14-4.73-2.86Q45.93,54.71,36.41,39.28c-1.38-2.22-2.2-4.47-.36-6.81,2.26-2.86,6-2.51,8.22.94,4.09,6.38,8,12.86,12,19.3,1.57,2.52,3.2,5,4.66,7.59.82,1.45,1.67,1.66,3.22,1.09Q73.55,58,83,54.8c4.11-1.37,7.34,1.08,6.91,5a4,4,0,0,1-2.52,3.59c-8.73,3.22-17.5,6.34-26.26,9.48A3.47,3.47,0,0,1,60.21,73Z"/></svg>