<?xml version="1.0" encoding="utf-8"?>
<!-- Generator: Adobe Illustrator 26.2.1, SVG Export Plug-In . SVG Version: 6.00 Build 0)  -->
<svg version="1.1" id="Layer_1" xmlns="http://www.w3.org/2000/svg" xmlns:xlink="http://www.w3.org/1999/xlink" x="0px" y="0px"
	 viewBox="0 0 64 64" style="enable-background:new 0 0 64 64;" xml:space="preserve">
<style type="text/css">
	.st0{clip-path:url(#SVGID_00000121991348252701815660000018392720422099781784_);fill:#BBBBBB;}
</style>
<g>
	<defs>
		<rect id="SVGID_3_" x="5.3" y="1.6" width="53.4" height="60.7"/>
	</defs>
	<clipPath id="SVGID_00000047049459227845211130000009509911478367480452_">
		<use xlink:href="#SVGID_3_"  style="overflow:visible;"/>
	</clipPath>
	<path style="clip-path:url(#SVGID_00000047049459227845211130000009509911478367480452_);fill:#BBBBBB;" d="M32,1.6
		c-8.8,0-16,7.2-16,16s7.2,16,16,16s16-7.2,16-16S40.8,1.6,32,1.6"/>
	<path style="clip-path:url(#SVGID_00000047049459227845211130000009509911478367480452_);fill:#BBBBBB;" d="M51.9,44.1
		c-4.4-4.5-10.2-6.9-16.4-6.9h-7.1c-6.2,0-12,2.5-16.4,6.9c-4.4,4.4-6.8,10.3-6.8,16.5c0,1,0.8,1.8,1.8,1.8h49.8
		c1,0,1.8-0.8,1.8-1.8C58.7,54.4,56.3,48.5,51.9,44.1"/>
</g>
</svg>
