<svg id="Layer_1" data-name="Layer 1" xmlns="http://www.w3.org/2000/svg" viewBox="0 0 120 120"><defs><style>.cls-1{fill:#3e5062;}</style></defs><path class="cls-1" d="M104.85,74.74c-1.5,0-2.26.91-2.26,2.81V90a3,3,0,0,1-.49,2.09c-.45-.32-.86-.61-1.26-.91l-32-23.92c-1.42-1.06-2.69-1-3.5.16s-.51,2.29.83,3.3L83.77,83.89Q90.91,89.23,98,94.61c.14.11,1,.13.24.66a2.41,2.41,0,0,1-1.6.24H12.22c-.46,0-.92-.05-1.38-.08a.12.12,0,0,1-.07-.07.5.5,0,0,1,0-.13c.1-.4.45-.57.73-.79q15-11.86,29.92-23.7c1.36-1.08,1.63-2.33.73-3.44s-2.1-1.09-3.41,0Q31.34,73.13,23.93,79C18.4,83.41,12.87,87.78,7.37,92.19c-.76.61-1.2.65-1.62-.32A7.77,7.77,0,0,1,5,88.69Q5,60,5,31.3c0-.43-.17-.91.23-1.38.3.21.62.38.88.6L14,37.31,51.94,70c1.42,1.22,2.31,1.22,3.75,0l8.92-7.67L88.09,42.06q6.64-5.73,13.32-11.45c.29-.25.56-.78,1-.54s.17.76.17,1.15c0,3.68,0,7.37,0,11.06,0,1.77.81,2.69,2.28,2.66S107,44,107,42.3c0-3.5,0-7,0-10.5C107,24.74,102.3,20,95.24,20H11.93A11,11,0,0,0,.8,29.21C.28,32,.59,34.81.59,37.62q0,25.5,0,51a10.92,10.92,0,0,0,9.43,11c3.48.53,7,.21,10.51.21q38,0,76.1,0c6.28,0,10.4-4.12,10.41-10.37v-12C107,75.67,106.3,74.76,104.85,74.74ZM11.63,24.44H96a7,7,0,0,1,3.28.91c.66.34.77.57.12,1.13-4.7,4-9.37,8.06-14.05,12.1L62,58.72c-2.48,2.14-5,4.25-7.44,6.41-.54.46-.86.58-1.48.05Q43.18,56.57,33.19,48L9.81,27.89c-.74-.63-1.45-1.27-2.27-2A6.48,6.48,0,0,1,11.63,24.44Z"/><path class="cls-1" d="M100.65,48.78a2.23,2.23,0,1,0,0,4.42c1.76,0,3.51,0,5.27,0s3.51,0,5.26,0a2.23,2.23,0,1,0,0-4.42Q105.92,48.75,100.65,48.78Z"/><path class="cls-1" d="M101.59,57.8c-2.08,0-3.43.91-3.43,2.2s1.35,2.19,3.43,2.21c2.41,0,4.83,0,7.24,0s4.83,0,7.24,0c2.09,0,3.43-.92,3.43-2.21s-1.35-2.2-3.43-2.2Q108.84,57.76,101.59,57.8Z"/><path class="cls-1" d="M111.18,66.48c-1.75,0-3.51,0-5.26,0s-3.51,0-5.27,0a2.22,2.22,0,1,0,0,4.41q5.26,0,10.53,0a2.22,2.22,0,1,0,0-4.41Z"/></svg>