<?xml version="1.0" encoding="utf-8"?>
<!-- Generator: Adobe Illustrator 23.0.1, SVG Export Plug-In . SVG Version: 6.00 Build 0)  -->
<svg version="1.1" id="Layer_1" xmlns="http://www.w3.org/2000/svg" xmlns:xlink="http://www.w3.org/1999/xlink" x="0px" y="0px"
	 viewBox="0 0 30 30" style="enable-background:new 0 0 30 30;" xml:space="preserve">
<style type="text/css">
	.st0{fill:#FFFFFF;}
</style>
<path class="st0" d="M29.6,10.7l-0.2-0.5c-0.1-0.3-0.4-0.5-0.8-0.5h-3.3l-1-3.1c-0.2-0.7-0.9-1.2-1.6-1.2H15H7.3
	C6.6,5.4,6,5.9,5.7,6.6l-1,3.1H1.4c-0.3,0-0.6,0.2-0.8,0.5l-0.2,0.5c-0.2,0.4,0,1,0.5,1.1l2.2,0.8l-1.7,1.5
	c-0.4,0.3-0.6,0.8-0.6,1.4v9.1h5v-2.5H15h9.2v2.5h5v-9.1c0-0.5-0.2-1-0.6-1.4l-1.7-1.5l2.2-0.8C29.5,11.6,29.8,11.1,29.6,10.7
	 M7.4,17.7H3.6c-0.5,0-0.9-0.4-0.9-0.9v-0.8c0-0.6,0.5-1,1.1-0.9l3.9,0.8C8,16,8.3,16.4,8.3,16.8C8.3,17.3,7.9,17.7,7.4,17.7
	 M5.8,11.6l1.5-4.6H15h7.7l1.5,4.6H15H5.8z M27.3,15.9v0.8c0,0.5-0.4,0.9-0.9,0.9h-3.9c-0.5,0-0.9-0.4-0.9-0.9
	c0-0.4,0.3-0.8,0.7-0.9l3.9-0.8C26.8,15,27.3,15.4,27.3,15.9"/>
</svg>
