<svg data-name="Layer 1" viewBox="0 0 512 512" xmlns="http://www.w3.org/2000/svg"><path d="M449.33 282.44a6.54 6.54 0 0 0-3.1-5.1L356 225.23v-89.78c0-.18-.12-.33-.13-.51a6.53 6.53 0 0 0-.59-2.21 5.68 5.68 0 0 0-.37-.74 6.37 6.37 0 0 0-2.14-2.15l-93.51-54a5.2 5.2 0 0 0-.76-.25 6.25 6.25 0 0 0-1.26-.43 6.16 6.16 0 0 0-1.24-.06 6.36 6.36 0 0 0-1.23.08 6.46 6.46 0 0 0-1.26.43 5.5 5.5 0 0 0-.75.25l-93.5 54a6.37 6.37 0 0 0-2.14 2.15 5.68 5.68 0 0 0-.37.74 6.53 6.53 0 0 0-.59 2.21c0 .18-.13.33-.13.51v89.78l-90.26 52.09a6.8 6.8 0 0 0-3.1 5.1c0 .18-.14.33-.14.51v93.5a6.46 6.46 0 0 0 3.24 5.61l93.49 54a6.53 6.53 0 0 0 6.48 0L256 383.93 346.26 436a6.53 6.53 0 0 0 6.48 0l93.49-54a6.46 6.46 0 0 0 3.24-5.61V283c0-.23-.12-.38-.14-.56ZM256 89l80.55 46.5L256 182l-80.55-46.51Zm87 57.72v78.54l-38.2 22.02a63.1 63.1 0 0 0-42.33-22.68v-31.43Zm-174 0 80.54 46.5v31.38a63.08 63.08 0 0 0-42.32 22.68L169 225.21Zm-13 272.49-80.52-46.49v-78.55l80.52 46.5Zm6.47-89.76L82 283l80.54-46.5L200 258.09a60.89 60.89 0 0 0-3.33 51.64Zm87 43.27L169 419.21v-78.54l33.42-19.3a63.32 63.32 0 0 0 47.12 29.06Zm-44.13-85.2A50.61 50.61 0 1 1 256 338.13a50.66 50.66 0 0 1-50.61-50.61ZM343 419.22l-80.55-46.5v-22.29a63.35 63.35 0 0 0 47.13-29.06l33.42 19.3Zm6.48-89.77-34.16-19.72a60.89 60.89 0 0 0-3.32-51.64l37.49-21.64L430 283Zm87 43.27L356 419.21v-78.54l80.55-46.5Z" fill="#6c6c6c" class="fill-000000"></path><path d="M256 252.62a22 22 0 0 0-6.48 43v17.9a6.48 6.48 0 0 0 13 0v-17.9a22 22 0 0 0-6.47-43Zm0 31.15a9.1 9.1 0 1 1 9.1-9.1 9.11 9.11 0 0 1-9.1 9.1Z" fill="#6c6c6c" class="fill-000000"></path></svg>