<?xml version="1.0" encoding="utf-8"?>
<!-- Generator: Adobe Illustrator 26.2.1, SVG Export Plug-In . SVG Version: 6.00 Build 0)  -->
<svg version="1.1" id="Layer_1" xmlns="http://www.w3.org/2000/svg" xmlns:xlink="http://www.w3.org/1999/xlink" x="0px" y="0px"
	 viewBox="0 0 64 64" style="enable-background:new 0 0 64 64;" xml:space="preserve">
<style type="text/css">
	.st0{fill:#BBBBBB;}
</style>
<g>
	<path class="st0" d="M54.8,29.8c-0.2-2.2-0.7-4.3-1.4-6.3l5.3-4.3L50.1,8.4l-5.3,4.2c-1.8-1.2-3.8-2.2-5.9-2.8V3.1H25v6.8
		c-2.2,0.7-4.3,1.7-6.2,3.1l-5.4-4.2L5,19.7l5.5,4.2c-0.7,2-1.2,4.1-1.3,6.3l-6.7,1.6l3.2,13.5l4.7-1.1c2.3-2.3,4.4-4.4,7.2-7.2
		C13.9,27,21.3,16.3,32,16.3c8.5,0,15.4,6.9,15.4,15.4c0,10.5-10.3,17.9-20.2,14.6c-0.8,0.8-9,9-10.3,10.3l9.1,4.3l3-6.5
		c2.1,0.3,4.2,0.2,6.3-0.1l3.1,6.4l12.5-6.1l-3.1-6.4c1.5-1.5,2.9-3.1,3.9-5l6.8,1.5l3-13.5L54.8,29.8z"/>
	<path class="st0" d="M41.9,27.7l-1-2.4L35,31.1l-2.6-2.6l5.9-5.9l-2.4-1c-9.6-3.8-18.4,6.7-13.4,15.4C9.5,50,20.5,39,5,54.5
		l4.5,4.5c9-9,0.3-0.3,17.6-17.6C35.9,45.8,45.5,36.9,41.9,27.7"/>
</g>
</svg>
