<svg viewBox="0 0 20 30" xmlns="http://www.w3.org/2000/svg"><g data-name="Layer 2"><path d="m1 29.5 9-6 9 6M1 29.5l3-12M19 29.5l-3-12" fill="none" stroke="#6c6c6c" stroke-linecap="round" stroke-linejoin="round" class="stroke-000000"></path><circle cx="10" cy="10" r="9.5" fill="none" stroke="#6c6c6c" stroke-linecap="round" stroke-linejoin="round" class="stroke-000000"></circle><path d="m10.49 4.85.91 2.59a.52.52 0 0 0 .46.36l2.64.11a.54.54 0 0 1 .3 1l-2.07 1.71a.58.58 0 0 0-.18.57l.72 2.66a.53.53 0 0 1-.79.6l-2.19-1.54a.51.51 0 0 0-.58 0l-2.19 1.5a.53.53 0 0 1-.79-.6l.72-2.66a.58.58 0 0 0-.18-.57L5.2 8.87a.54.54 0 0 1 .3-1l2.64-.07a.52.52 0 0 0 .46-.36l.91-2.59a.52.52 0 0 1 .98 0Z" fill="none" stroke="#6c6c6c" stroke-linecap="round" stroke-linejoin="round" class="stroke-000000"></path></g></svg>