<svg id="Layer_1" data-name="Layer 1" xmlns="http://www.w3.org/2000/svg" viewBox="0 0 120 120"><defs><style>.cls-1{fill:#3e5062;}</style></defs><path class="cls-1" d="M7.65,54.84a8.73,8.73,0,0,0,1.77.58c3.59.5,7.17,1.21,10.78,1.35a21.45,21.45,0,0,0,11.3-2.38c3.78-2.09,6-5.19,6.15-9.61a4.07,4.07,0,0,1,2.88-4,35.4,35.4,0,0,1,7-1.79,96.26,96.26,0,0,1,23,0A35.67,35.67,0,0,1,78,41a3.46,3.46,0,0,1,2.25,3.41c.31,4.92,2.85,8.33,7.31,10.37a24.48,24.48,0,0,0,11,1.85,16.1,16.1,0,0,0,3.26,0,59.52,59.52,0,0,0,9.63-2.3A8.93,8.93,0,0,0,117.55,45,37.94,37.94,0,0,0,112,26.57a10.73,10.73,0,0,0-3.52-3.6C87.12,10.36,64.18,6.69,39.9,11.19A88.37,88.37,0,0,0,9,23.05a11,11,0,0,0-3.33,3.37A37.41,37.41,0,0,0,.11,42.65C-.56,48.88,1.77,52.6,7.65,54.84ZM81.24,36.5c-13.39-4.79-31.53-4.77-44.4,0-1.08-2.06-1.06-2.36.58-3.87,3-2.77,6.73-4.05,10.66-4.76a58.09,58.09,0,0,1,23.78.41,19.4,19.4,0,0,1,8.72,4.27C82.25,34.05,82.28,34.36,81.24,36.5ZM10.25,29A5.45,5.45,0,0,1,12,27.32,88.58,88.58,0,0,1,44.4,15.77a89.35,89.35,0,0,1,21.73-.86,89.77,89.77,0,0,1,39.31,12.38,6.63,6.63,0,0,1,2.13,2.15,34,34,0,0,1,4.75,15.8,3.67,3.67,0,0,1-2.3,3.89,28.15,28.15,0,0,1-17.49,1.78c-.4-.1-.81-.2-1.2-.32-4.57-1.42-6.26-4-5.57-8.66A33,33,0,0,1,87.17,36a4.72,4.72,0,0,0-.54-4.42c-2.31-3.58-5.73-5.68-9.55-7.2-4.88-2-10.8-2.84-18-2.85a50.5,50.5,0,0,0-17.17,2.51,20.71,20.71,0,0,0-9.72,6.49,5.67,5.67,0,0,0-1.11,6,28,28,0,0,1,1.38,7.31c.28,3-1.43,5.18-4.53,6.34a23.82,23.82,0,0,1-10.75,1.16,41.92,41.92,0,0,1-6.57-1.19,9,9,0,0,1-3.69-1.89,4.77,4.77,0,0,1-1.56-3.17A31.62,31.62,0,0,1,10.25,29Z"/><path class="cls-1" d="M119.7,99.25a116.08,116.08,0,0,0-6.17-30.74c-.89-2.6-1.9-5.17-3-7.7a2.49,2.49,0,0,0-3.41-1.29,2.58,2.58,0,0,0-1.42,3.23c.17.54.41,1.07.62,1.6a113.19,113.19,0,0,1,8.27,38.93c.07,2.2.07,2.2-2.19,2.2H5.47a5.4,5.4,0,0,1-.13-.79A119.11,119.11,0,0,1,8.88,77.58c1.29-5,3-9.83,4.51-14.73.64-2,0-3.56-1.67-4-1.35-.36-2.61.45-3.27,2.18A128.38,128.38,0,0,0,0,107.17c0,2.75.73,3.48,3.52,3.48H116.63c2.53,0,3.41-.78,3.37-3.16C120,104.74,119.86,102,119.7,99.25Z"/><path class="cls-1" d="M80.89,55.1C74.55,50,67.1,48.1,58.29,48c-1.08.08-2.95.12-4.79.39-7.45,1.09-14.09,3.85-19.34,9.45a18.12,18.12,0,0,0-1.4,23.81A25.53,25.53,0,0,0,41.52,89a37.17,37.17,0,0,0,19.72,4.12,34,34,0,0,0,19-6.49C91.84,78.07,92.15,64.11,80.89,55.1Zm2.9,15.18c-.11,6-3.19,9.84-7.56,12.75a30.41,30.41,0,0,1-19.58,4.8c-6.21-.44-11.9-2.23-16.77-6.25-7.52-6.19-7.49-15.78,0-21.95a28.65,28.65,0,0,1,16.64-6.19A30.8,30.8,0,0,1,75.9,58c3.64,2.32,6.48,5.37,7.53,9.73A21.83,21.83,0,0,1,83.79,70.28Z"/><path class="cls-1" d="M76.6,61.21c-5.13-4.11-11.13-5.64-18.07-5.68a27.58,27.58,0,0,0-16.36,5.13c-2.93,2.15-5.16,4.86-5.61,8.64-.61,5,1.91,8.6,5.72,11.36,6.11,4.43,13.09,5.61,20.43,4.87a25.78,25.78,0,0,0,13.87-5.45C83.28,74.7,83.31,66.58,76.6,61.21ZM73.3,75.92a19.75,19.75,0,0,1-9.77,4.14,24.85,24.85,0,0,1-15.6-2.13,16.44,16.44,0,0,1-4.15-3c-2.76-2.72-2.82-6,0-8.62a16.16,16.16,0,0,1,5.4-3.54,69.31,69.31,0,0,1,8.23-2.13c6,.27,10.32,1,14.23,3.44a15.77,15.77,0,0,1,1.75,1.29C77.33,68.85,77.32,72.5,73.3,75.92Z"/></svg>