<?xml version="1.0" encoding="utf-8"?>
<!-- Generator: Adobe Illustrator 26.2.1, SVG Export Plug-In . SVG Version: 6.00 Build 0)  -->
<svg version="1.1" id="Layer_1" xmlns="http://www.w3.org/2000/svg" xmlns:xlink="http://www.w3.org/1999/xlink" x="0px" y="0px"
	 viewBox="0 0 64 64" style="enable-background:new 0 0 64 64;" xml:space="preserve">
<style type="text/css">
	.st0{fill:#BBBBBB;}
</style>
<g>
	<path class="st0" d="M42.7,16.3V9.5c0-1.1-0.9-1.9-1.9-1.9H23.2c-1.1,0-1.9,0.9-1.9,1.9v6.8h-5.5v40.1h32.5V16.3H42.7z M38.9,16.3
		H25.1v-4.9h13.7L38.9,16.3L38.9,16.3z"/>
	<path class="st0" d="M7.7,16.3c-3.6,0-6.6,3-6.6,6.6v26.9c0,3.6,3,6.6,6.6,6.6h4.1V16.3H7.7z"/>
	<path class="st0" d="M56.3,16.3h-4.1v40.1h4.1c3.6,0,6.6-3,6.6-6.6V22.9C62.9,19.3,59.9,16.3,56.3,16.3"/>
</g>
</svg>
