<svg viewBox="0 0 32 32" xmlns="http://www.w3.org/2000/svg"><g data-name="Layer 3"><path d="M11 22a10 10 0 1 1 10-10 10 10 0 0 1-10 10Zm0-18a8 8 0 1 0 8 8 8 8 0 0 0-8-8ZM28 29.74a3 3 0 0 1-1.93-.7l-6.13-5.14a3 3 0 0 1 3.86-4.6l6.13 5.14a3 3 0 0 1-1.93 5.3Zm-6.13-9.14h-.09a1 1 0 0 0-.55 1.77l6.13 5.14a1 1 0 0 0 1.41-.12 1 1 0 0 0 .23-.73 1 1 0 0 0-.36-.68l-6.13-5.15a1 1 0 0 0-.64-.23Z" fill="#6f6f6f" class="fill-101820"></path><path d="M20 21a1 1 0 0 1-.64-.23L17 18.82a1 1 0 0 1 1.28-1.54l2.34 1.95a1 1 0 0 1 .13 1.41A1 1 0 0 1 20 21Z" fill="#6f6f6f" class="fill-101820"></path></g></svg>