<svg id="Layer_1" data-name="Layer 1" xmlns="http://www.w3.org/2000/svg" viewBox="0 0 120 120"><defs><style>.cls-1{fill:#cf172e;}</style></defs><path class="cls-1" d="M60,11.07a48.94,48.94,0,0,1,48.36,41.45h11.12a59.94,59.94,0,0,0-119,0H11.64A48.94,48.94,0,0,1,60,11.07Z"/><path class="cls-1" d="M60,108.93A48.94,48.94,0,0,1,11.64,67.48H.52a59.94,59.94,0,0,0,119,0H108.36A48.94,48.94,0,0,1,60,108.93Z"/><path class="cls-1" d="M68.27,60.21,46,38.07c-4-4-4-7.63,0-11.64.47-.47.93-.95,1.41-1.4,3-2.79,7-2.91,9.91,0q14.92,14.77,29.7,29.7a7.5,7.5,0,0,1,0,10.6Q72.26,80.24,57.34,95c-2.92,2.88-6.91,2.74-9.91-.08-.64-.61-1.25-1.25-1.87-1.88-3.34-3.42-3.36-7.32,0-10.7Q55.94,71.94,66.35,61.57A15.42,15.42,0,0,1,68.27,60.21Z"/></svg>