<?xml version="1.0" encoding="utf-8"?>
<!-- Generator: Adobe Illustrator 26.1.0, SVG Export Plug-In . SVG Version: 6.00 Build 0)  -->
<svg version="1.1" id="Layer_1" xmlns="http://www.w3.org/2000/svg" xmlns:xlink="http://www.w3.org/1999/xlink" x="0px" y="0px"
	 viewBox="0 0 24 24" style="enable-background:new 0 0 24 24;" xml:space="preserve">
<style type="text/css">
	.st0{fill:none;}
	.st1{fill:#FFFFFF;}
</style>
<g>
	<rect id="canvas_background" x="-1" y="-1" class="st0" width="26" height="26"/>
</g>
<g>
	<path id="svg_1" class="st1" d="M0.4,12c0,0.9,0.7,1.7,1.7,1.7h15.8l-3.8,3.8c-0.3,0.3-0.5,0.7-0.5,1.1c0,0.8,0.7,1.7,1.7,1.7
		c0.4,0,0.8-0.2,1.1-0.5l6.6-6.6c0.3-0.3,0.5-0.6,0.5-1.2s-0.3-0.9-0.5-1.2l-6.6-6.6c-0.3-0.3-0.7-0.5-1.1-0.5c-1,0-1.7,0.8-1.7,1.7
		c0,0.4,0.2,0.8,0.5,1.1l3.8,3.8H2.1C1.2,10.3,0.4,11.1,0.4,12z"/>
</g>
</svg>
