<?xml version="1.0" ?><svg data-name="error-credit card-transaction" height="64" id="error-credit_card-transaction" viewBox="0 0 64 64" width="64" xmlns="http://www.w3.org/2000/svg"><defs><style>
      .cls-1 {
        fill: #42b9cc;
      }
    </style></defs><title/><rect class="cls-1" height="6" width="6" x="51" y="29"/><path class="cls-1" d="M44,31c-3,0-3,1-3,3a2.652,2.652,0,0,0,3,3c2,0,3-2,2-4S45,31,44,31Z"/><path class="cls-1" d="M19,17c-3,0-4,0-4,3s1,3,4,3,4,0,4-3S21,17,19,17Z"/><circle class="cls-1" cx="15" cy="43" r="8"/><g><path d="M55,18H52V15a3,3,0,0,0-3-3H13a3,3,0,0,0-3,3V32a1,1,0,0,0,2,0V15a1,1,0,0,1,1-1H49a1,1,0,0,1,1,1V39a1,1,0,0,1-1,1H27a1,1,0,0,0,0,2H49a3,3,0,0,0,3-3V36h4v9a1,1,0,0,1-1,1H26a1,1,0,0,0,0,2H55a3,3,0,0,0,3-3V21A3,3,0,0,0,55,18Zm0,2a1,1,0,0,1,1,1v7H52V20ZM52,34V30h4v4Z"/><path d="M39,26H31a1,1,0,0,0,0,2h8a1,1,0,0,0,0-2Z"/><path d="M47,28a1,1,0,0,0,0-2H43a1,1,0,0,0,0,2Z"/><path d="M22,27a1,1,0,0,0,1,1h4a1,1,0,0,0,0-2H23A1,1,0,0,0,22,27Z"/><path d="M15,28h4a1,1,0,0,0,0-2H15a1,1,0,0,0,0,2Z"/><path d="M21,16H17a3,3,0,0,0-3,3v2a3,3,0,0,0,3,3h4a3,3,0,0,0,3-3V19A3,3,0,0,0,21,16Zm1,5a1,1,0,0,1-1,1H17a1,1,0,0,1-1-1V19a1,1,0,0,1,1-1h4a1,1,0,0,1,1,1Z"/><path d="M15,34a9,9,0,1,0,9,9A9.01,9.01,0,0,0,15,34Zm0,16a7,7,0,1,1,7-7A7.008,7.008,0,0,1,15,50Z"/><path d="M39,30a4,4,0,1,0,2.51,7.106A3.96,3.96,0,0,0,44,38a4,4,0,0,0,0-8,3.96,3.96,0,0,0-2.49.894A3.989,3.989,0,0,0,39,30Zm-2,4a2,2,0,0,1,2-2,1.968,1.968,0,0,1,1.3.486,3.948,3.948,0,0,0,0,3.029A1.969,1.969,0,0,1,39,36,2,2,0,0,1,37,34Zm7-2a2,2,0,1,1-2,2A2,2,0,0,1,44,32Z"/><path d="M15,38a1,1,0,0,0-1,1v5a1,1,0,0,0,2,0V39A1,1,0,0,0,15,38Z"/><circle cx="15" cy="47" r="1"/></g></svg>