<svg viewBox="0 0 56.7 56.7" xml:space="preserve" xmlns="http://www.w3.org/2000/svg" enable-background="new 0 0 56.7 56.7"><path d="M38.294 20.575c-4.571.239-8.547 1.625-11.775 4.756-3.26 3.163-4.75 7.04-4.342 11.845-1.787-.221-3.415-.465-5.052-.603-.565-.047-1.236.02-1.715.29-1.59.897-3.113 1.91-4.919 3.039.331-1.499.546-2.811.926-4.074.279-.928.15-1.444-.705-2.048-5.488-3.875-7.802-9.674-6.07-15.643 1.601-5.523 5.535-8.873 10.88-10.619 7.294-2.382 15.492.048 19.928 5.84 1.602 2.092 2.585 4.44 2.844 7.217zm-21.04-1.86c.041-1.092-.905-2.076-2.029-2.109-1.15-.033-2.096.846-2.13 1.98-.034 1.149.845 2.07 2.004 2.1 1.149.028 2.112-.852 2.154-1.971zm10.977-2.11c-1.128.021-2.08.982-2.06 2.078.02 1.137.955 2.026 2.115 2.012 1.163-.014 2.045-.913 2.034-2.073a2.033 2.033 0 0 0-2.089-2.016z" fill="#6f6f6f" class="fill-000000"></path><path d="M48.566 49.077c-1.448-.645-2.776-1.612-4.19-1.76-1.408-.147-2.889.666-4.362.816-4.489.46-8.51-.791-11.825-3.858-6.306-5.832-5.405-14.775 1.89-19.555 6.485-4.248 15.994-2.831 20.566 3.063 3.989 5.143 3.52 11.97-1.35 16.291-1.41 1.25-1.917 2.28-1.012 3.928.166.305.186.69.282 1.075zm-16.48-15.955c.923 0 1.681-.72 1.716-1.63a1.715 1.715 0 0 0-1.703-1.777c-.955-.004-1.756.816-1.723 1.765.032.907.796 1.64 1.71 1.642zm10.624-3.403c-.894-.006-1.654.726-1.69 1.63a1.677 1.677 0 0 0 1.668 1.762 1.66 1.66 0 0 0 1.689-1.617c.036-.968-.716-1.768-1.667-1.775z" fill="#6f6f6f" class="fill-000000"></path></svg>