<svg viewBox="0 0 64 64" xml:space="preserve" xmlns="http://www.w3.org/2000/svg" enable-background="new 0 0 64 64"><path d="m-168.2-328 3.7-14.9 22.7-22.7 11.2 11.2-22.7 22.7-14.9 3.7zm6.3-13.5-2.4 9.6 9.6-2.4 20.2-20.2-7.2-7.2-20.2 20.2z" transform="translate(179 382)" fill="#ffffff" class="fill-134563"></path><path d="M-155.7-332.6c-1-3.9-4-6.9-7.9-7.9l.7-2.8c4.9 1.2 8.7 5 9.9 9.9l-2.7.8" transform="translate(179 382)" fill="#ffffff" class="fill-134563"></path><path d="m-156-338.1-2-2.1 19.9-19.9 2 2-19.9 20M-166.2-330l4.4-1.1c-.4-1.6-1.7-2.9-3.3-3.3l-1.1 4.4M-129.5-355.5l-11.2-11.2 4.5-4.5.7.1c5.4.7 9.7 5 10.4 10.4l.1.7-4.5 4.5zm-7.1-11.2 7.2 7.2 1.4-1.4c-.8-3.6-3.6-6.4-7.2-7.2l-1.4 1.4z" transform="translate(179 382)" fill="#ffffff" class="fill-134563"></path></svg>